<?xml version="1.0" standalone="no"?>
<!DOCTYPE svg PUBLIC "-//W3C//DTD SVG 20010904//EN"
 "http://www.w3.org/TR/2001/REC-SVG-20010904/DTD/svg10.dtd">
<svg version="1.0" xmlns="http://www.w3.org/2000/svg"
 width="300.000000pt" height="188.000000pt" viewBox="0 0 300.000000 188.000000"
 preserveAspectRatio="xMidYMid meet">
<metadata>
Created by potrace 1.10, written by Peter Selinger 2001-2011
</metadata>
<g transform="translate(0.000000,188.000000) scale(0.100000,-0.100000)"
fill="#000000" stroke="none">
<path d="M1400 1765 l0 -65 35 0 c19 0 35 -4 35 -10 0 -5 18 -10 40 -10 22 0
40 5 40 10 0 6 16 10 35 10 l36 0 -3 63 -3 62 -107 3 -108 3 0 -66z m175 8 c8
-22 -27 -53 -61 -53 -35 0 -74 21 -74 40 0 26 9 30 71 30 45 0 58 -4 64 -17z"/>
<path d="M1152 1734 c-24 -14 -42 -29 -40 -33 2 -4 17 -33 33 -64 35 -66 54
-71 104 -29 l33 27 -37 63 c-21 34 -40 62 -44 62 -3 0 -25 -12 -49 -26z m62
-66 c5 -15 7 -31 3 -34 -11 -11 -47 27 -47 48 0 29 33 18 44 -14z"/>
<path d="M1773 1701 c-18 -33 -31 -66 -28 -73 7 -17 57 -48 78 -48 11 0 87
108 87 125 0 5 -88 55 -97 55 -4 0 -23 -27 -40 -59z m77 -15 c0 -8 -9 -24 -19
-37 -26 -32 -48 -15 -30 24 13 28 49 37 49 13z"/>
<path d="M1485 1631 c5 -16 -2 -19 -46 -25 -46 -6 -51 -9 -45 -29 3 -12 6 -28
6 -35 0 -10 11 -12 43 -7 l43 7 -4 -61 c-4 -60 -4 -61 22 -61 24 0 26 4 26 39
0 29 -4 41 -17 43 -12 3 1 14 40 33 31 16 57 32 57 36 0 6 -116 79 -126 79 -3
0 -3 -8 1 -19z"/>
<path d="M1620 1593 c0 -3 7 -11 16 -18 14 -10 13 -13 -15 -24 -37 -16 -41
-31 -8 -31 39 0 144 -59 193 -108 79 -79 121 -164 133 -269 l6 -57 35 0 35 -1
-3 45 c-10 155 -115 328 -244 404 -51 29 -148 68 -148 59z"/>
<path d="M1302 1570 l-43 -19 18 -28 c9 -15 18 -29 18 -30 1 -2 20 5 43 14 37
14 41 19 35 42 -11 49 -11 48 -71 21z"/>
<path d="M1192 1508 l-44 -30 28 -29 28 -29 25 22 c14 13 30 26 34 29 5 3 0
20 -10 36 l-18 31 -43 -30z"/>
<path d="M935 1522 c-123 -1 -214 -7 -219 -12 -6 -6 -11 -28 -12 -50 l-1 -40
176 0 177 0 48 50 c27 28 47 51 45 53 -2 1 -98 1 -214 -1z m114 -41 c30 -19
-29 -31 -158 -31 -124 0 -151 6 -136 30 8 12 274 13 294 1z"/>
<path d="M1852 1519 c2 -4 22 -28 46 -53 l42 -46 176 0 175 0 -3 48 -3 47
-218 5 c-119 3 -216 2 -215 -1z m387 -38 c34 -22 -4 -31 -130 -31 -124 0 -177
10 -164 31 8 11 275 12 294 0z"/>
<path d="M1098 1416 c-35 -43 -35 -48 0 -68 28 -17 28 -16 56 18 l28 36 -23
24 c-12 13 -25 24 -28 24 -3 0 -18 -16 -33 -34z"/>
<path d="M1553 1411 c-6 -22 -38 -37 -100 -46 -23 -4 -43 -12 -46 -18 -2 -7
-1 -35 4 -62 4 -28 8 -55 8 -61 2 -22 -28 -23 -54 -2 -31 25 -46 16 -20 -12
14 -16 16 -23 7 -32 -7 -7 -12 -22 -12 -33 0 -31 -33 -58 -60 -50 -38 12 -86
-3 -98 -31 -27 -58 -6 -160 28 -139 14 8 13 48 -1 62 -9 9 -8 18 4 36 16 24
33 27 76 12 21 -6 22 -9 10 -19 -22 -16 -30 -45 -19 -67 13 -23 37 -24 62 -2
22 20 24 19 40 -40 10 -38 10 -52 0 -67 -7 -11 -8 -20 -3 -20 5 0 8 -8 7 -17
-1 -12 6 -18 19 -18 19 0 20 6 19 113 l-1 112 28 0 c15 0 29 6 32 13 6 15 6
14 48 -130 18 -62 37 -113 41 -113 12 0 10 10 -27 131 -19 63 -35 117 -35 122
0 4 11 7 24 7 14 0 28 5 31 10 6 10 105 -64 105 -79 0 -4 -16 -24 -35 -43 -40
-39 -41 -71 -4 -103 25 -24 54 -13 39 15 -13 25 -6 25 35 0 18 -11 40 -17 49
-14 20 8 21 24 1 24 -38 0 -28 42 28 113 26 34 28 41 17 62 -14 26 -48 54
-135 107 -44 28 -54 38 -37 38 12 0 22 -5 22 -11 0 -6 12 -9 28 -7 32 4 37 31
7 36 -48 8 -75 27 -104 73 -38 62 -39 78 -6 71 23 -4 25 -1 25 31 0 20 -7 43
-16 51 -20 21 -25 20 -31 -3z m-33 -106 c-14 -17 -36 -20 -45 -6 -3 6 7 16 22
23 30 15 42 6 23 -17z m-56 10 c-10 -24 14 -45 44 -39 20 4 30 0 39 -15 10
-17 10 -19 -1 -15 -9 3 -21 -11 -36 -40 -12 -25 -25 -46 -28 -46 -4 1 -16 8
-28 18 -18 15 -20 25 -14 72 5 50 15 80 25 80 3 0 2 -7 -1 -15z m136 -146 c0
-6 -69 -1 -78 6 -2 2 0 14 4 29 l6 25 34 -25 c19 -15 34 -30 34 -35z m-143 -7
c13 -8 30 -12 38 -8 30 11 147 -21 169 -46 11 -14 38 -37 59 -52 20 -15 37
-35 37 -45 0 -29 -60 -141 -76 -141 -16 0 -12 12 14 43 8 9 11 17 5 17 -12 0
-48 -39 -56 -60 -4 -11 -6 -10 -6 4 -1 11 10 34 24 52 14 18 25 38 25 44 0 21
-34 62 -70 85 -33 21 -42 22 -86 13 -27 -6 -51 -13 -54 -17 -3 -3 -16 -12 -29
-19 -20 -12 -25 -12 -32 0 -15 23 -10 45 14 62 l22 16 -30 25 c-16 14 -36 25
-44 25 -11 0 -9 4 4 14 20 14 35 12 72 -12z m-42 -35 c17 -13 17 -15 -4 -36
-16 -16 -21 -29 -16 -44 10 -31 8 -58 -5 -71 -8 -8 -13 -7 -20 3 -7 12 -11 13
-24 1 -22 -17 -31 -6 -27 36 1 19 -2 34 -8 34 -6 0 -8 7 -5 15 4 8 13 15 20
15 8 0 17 8 21 18 15 43 36 52 68 29z"/>
<path d="M432 1408 c-16 -16 -15 -43 2 -57 8 -7 36 -11 63 -9 42 3 48 6 51 27
3 15 -3 30 -14 38 -22 16 -86 17 -102 1z"/>
<path d="M2460 1400 c-22 -22 -24 -29 -11 -49 7 -10 24 -14 57 -12 53 2 74 14
74 42 0 40 -85 54 -120 19z"/>
<path d="M1024 1295 c-9 -25 -15 -47 -13 -49 2 -2 18 -7 34 -10 28 -6 32 -3
48 31 17 37 16 38 -6 55 -34 26 -44 22 -63 -27z"/>
<path d="M620 1322 c-14 -5 -13 -45 2 -60 7 -7 27 -12 45 -12 29 0 33 -3 33
-25 l0 -25 129 0 129 0 15 48 c9 26 19 55 22 63 4 12 -23 14 -180 14 -102 0
-189 -1 -195 -3z m318 -37 c16 -6 15 -20 -4 -39 -12 -12 -37 -16 -102 -16 -74
0 -89 3 -109 22 -43 40 -33 44 106 40 53 -1 102 -5 109 -7z"/>
<path d="M2006 1305 c3 -11 11 -39 17 -62 l12 -43 132 0 133 0 0 24 c0 21 5
25 36 28 42 3 65 29 49 54 -8 13 -39 16 -198 17 -184 2 -188 2 -181 -18z m293
-21 c3 -2 -6 -16 -20 -29 -21 -22 -34 -25 -112 -27 -69 -1 -91 2 -104 14 -26
27 -9 47 44 50 60 4 186 -1 192 -8z"/>
<path d="M367 1213 c-14 -13 -6 -53 12 -63 29 -15 87 -12 101 5 10 12 10 21 2
40 -10 22 -18 25 -60 25 -27 0 -52 -3 -55 -7z"/>
<path d="M996 1208 c-3 -7 -7 -32 -10 -55 l-6 -43 40 0 c38 0 40 2 40 29 0 16
3 36 6 44 3 10 -5 18 -27 26 -40 14 -39 14 -43 -1z"/>
<path d="M2522 1208 c-31 -31 -5 -68 49 -68 43 0 71 23 67 54 -3 18 -11 21
-53 24 -30 2 -55 -2 -63 -10z"/>
<path d="M155 1114 c-14 -14 -14 -19 -2 -38 19 -27 104 -31 120 -4 28 44 -78
81 -118 42z"/>
<path d="M2735 1114 c-9 -9 -15 -26 -13 -38 3 -18 11 -22 51 -24 27 -2 55 2
63 9 19 15 18 55 -2 63 -30 11 -83 6 -99 -10z"/>
<path d="M1090 1095 c0 -22 4 -25 40 -25 36 0 40 3 40 25 0 23 -4 25 -40 25
-36 0 -40 -2 -40 -25z"/>
<path d="M1830 1086 c0 -24 4 -26 40 -26 33 0 40 3 40 20 0 14 -7 20 -24 20
-13 0 -31 3 -40 6 -12 5 -16 0 -16 -20z"/>
<path d="M542 1088 c-16 -16 -15 -33 2 -51 11 -11 32 -13 85 -9 l71 5 0 -36 0
-36 112 -3 c110 -3 113 -4 127 -30 13 -22 13 -29 2 -42 -12 -14 -46 -16 -255
-16 -243 0 -266 -3 -266 -36 0 -7 7 -20 16 -29 14 -14 37 -16 143 -14 l126 2
0 -42 0 -41 198 -3 c108 -1 197 0 197 2 0 2 -14 19 -30 38 -59 67 -120 224
-120 309 l0 44 -198 0 c-141 0 -201 -3 -210 -12z m374 -32 c11 -29 11 -51 0
-58 -6 -4 -45 -8 -87 -8 -75 0 -77 1 -102 34 -15 18 -24 36 -21 39 4 3 51 6
105 6 77 0 101 -3 105 -13z m78 -252 c14 -26 26 -50 26 -55 0 -5 -60 -9 -134
-9 l-134 0 -16 35 c-9 19 -21 37 -26 40 -26 16 10 25 98 24 53 0 108 4 122 9
32 12 33 11 64 -44z"/>
<path d="M2050 1073 c0 -49 -29 -163 -53 -216 -13 -29 -40 -73 -60 -100 -21
-26 -37 -48 -37 -50 0 -1 88 -2 195 -2 l195 0 0 45 0 45 128 -3 c120 -4 128
-3 147 18 15 16 17 25 9 38 -10 15 -40 18 -259 22 -217 4 -249 7 -258 22 -8
12 -8 24 1 42 11 26 13 26 127 26 l115 0 -2 33 -3 32 65 1 c89 2 88 1 100 25
24 44 4 49 -211 49 l-199 0 0 -27z m250 -9 c0 -3 -12 -21 -26 -40 l-27 -35
-86 3 c-78 3 -86 5 -87 23 -1 50 10 55 121 55 58 0 105 -3 105 -6z m-116 -224
c58 0 107 -4 110 -9 3 -4 -3 -16 -14 -26 -11 -10 -20 -26 -20 -35 0 -10 -7
-21 -16 -24 -29 -11 -264 -7 -264 5 0 14 42 92 54 101 6 4 18 2 27 -3 10 -5
65 -9 123 -9z"/>
<path d="M987 1033 c3 -27 7 -50 9 -51 1 -2 16 -1 33 3 29 6 31 10 31 51 l0
44 -40 0 -40 0 7 -47z"/>
<path d="M1937 1023 c-4 -21 -3 -40 1 -44 12 -11 62 -20 62 -12 1 5 5 27 9 51
l8 42 -37 0 c-35 0 -38 -2 -43 -37z"/>
<path d="M242 958 c-16 -16 -15 -43 2 -57 8 -7 36 -11 63 -9 41 3 48 6 51 26
2 13 -2 30 -8 38 -15 17 -91 19 -108 2z"/>
<path d="M1035 957 c-16 -5 -31 -11 -33 -12 -1 -1 7 -23 18 -49 l20 -47 31 16
c22 12 29 21 24 33 -4 9 -10 27 -12 40 -7 29 -12 31 -48 19z"/>
<path d="M2644 949 c-28 -31 -8 -53 53 -57 44 -3 51 0 63 22 19 36 0 56 -55
56 -30 0 -47 -6 -61 -21z"/>
<path d="M1905 910 c-10 -22 -16 -42 -14 -43 2 -2 16 -11 31 -20 l27 -17 21
47 c22 50 20 57 -21 67 -23 5 -28 1 -44 -34z"/>
<path d="M1090 843 c-14 -9 -27 -18 -29 -20 -5 -3 49 -83 56 -83 3 0 15 10 28
22 l23 22 -25 38 c-14 21 -26 38 -27 38 -1 0 -13 -8 -26 -17z"/>
<path d="M1850 815 c-7 -14 -17 -25 -22 -25 -13 0 -9 -13 15 -43 l23 -28 34
42 33 42 -24 18 c-32 25 -43 24 -59 -6z"/>
<path d="M1292 759 c-17 -27 -5 -40 14 -15 8 11 14 23 14 28 0 15 -15 8 -28
-13z"/>
<path d="M1161 741 l-24 -25 38 -33 c21 -18 41 -33 44 -33 3 0 13 13 23 29 16
29 16 29 -20 58 l-37 28 -24 -24z"/>
<path d="M1470 714 c0 -41 2 -45 22 -42 18 2 22 10 22 42 1 33 -2 39 -21 42
-21 4 -23 0 -23 -42z"/>
<path d="M454 742 c-21 -14 -23 -40 -4 -57 13 -11 32 -15 66 -13 41 3 49 6 52
24 2 12 -4 29 -13 38 -17 16 -81 22 -101 8z"/>
<path d="M1758 727 c-26 -21 -27 -25 -16 -55 7 -18 15 -32 18 -32 3 0 25 14
49 31 l42 32 -22 23 c-28 29 -37 29 -71 1z"/>
<path d="M2447 737 c-12 -8 -18 -22 -15 -38 3 -22 7 -24 57 -24 61 0 85 20 65
53 -14 22 -82 28 -107 9z"/>
<path d="M1261 664 c-6 -14 -9 -29 -7 -33 7 -10 85 -45 90 -40 2 2 6 19 9 36
6 30 4 34 -29 48 -47 20 -49 19 -63 -11z"/>
<path d="M1657 672 c-23 -11 -35 -22 -32 -30 3 -8 5 -22 5 -33 0 -23 12 -24
66 -3 l42 16 -20 34 c-11 19 -21 34 -21 33 -1 0 -19 -8 -40 -17z"/>
<path d="M1388 643 c-3 -4 -8 -20 -12 -34 -5 -24 -2 -27 25 -33 65 -13 75 -9
75 29 0 29 -4 35 -20 35 -12 0 -31 3 -42 6 -12 3 -24 2 -26 -3z"/>
<path d="M1538 643 c-36 -4 -38 -6 -38 -39 l0 -34 49 0 c57 0 63 6 53 45 -9
32 -11 33 -64 28z"/>
<path d="M2530 490 c0 -5 5 -10 10 -10 6 0 10 -11 10 -25 0 -14 5 -25 10 -25
6 0 10 11 10 25 0 14 5 25 10 25 6 0 10 -11 10 -23 0 -21 5 -24 39 -25 38 -2
39 -1 36 30 -3 39 -20 48 -29 16 l-7 -23 -11 23 c-9 17 -20 22 -50 22 -21 0
-38 -4 -38 -10z"/>
<path d="M984 455 c-8 -21 2 -45 19 -45 8 0 20 7 27 15 10 12 10 18 0 30 -7 8
-19 15 -27 15 -7 0 -16 -7 -19 -15z"/>
<path d="M1177 415 c5 -34 -8 -48 -22 -25 -11 18 -54 11 -75 -12 -27 -29 -27
-91 0 -118 22 -22 69 -27 88 -8 9 9 12 9 12 0 0 -7 10 -12 23 -12 21 0 22 3
22 105 l0 105 -27 0 c-25 0 -26 -2 -21 -35z m-3 -77 c8 -13 8 -23 0 -35 -16
-26 -51 -28 -64 -4 -25 47 36 83 64 39z"/>
<path d="M2000 345 l0 -105 26 0 c24 0 26 3 21 30 -4 17 -2 30 3 30 5 0 17
-13 27 -30 14 -24 24 -30 52 -30 l35 0 -32 33 c-18 18 -32 37 -32 41 0 4 14
26 31 47 l31 39 -34 0 c-28 0 -37 -6 -52 -35 -10 -19 -22 -32 -26 -30 -4 2 -5
29 -2 60 4 54 4 55 -22 55 l-26 0 0 -105z"/>
<path d="M410 340 l0 -100 26 0 c25 0 26 2 21 40 -3 22 -1 40 4 40 5 0 18 -18
29 -40 17 -33 25 -40 50 -40 l30 0 -26 40 -27 41 21 15 c27 19 29 65 4 87 -13
12 -37 17 -75 17 l-57 0 0 -100z m100 55 c16 -19 -3 -45 -31 -45 -14 0 -19 7
-19 30 0 23 5 30 19 30 10 0 24 -7 31 -15z"/>
<path d="M1340 340 l0 -100 63 0 c49 0 68 4 80 18 22 24 21 48 -2 68 -18 16
-18 17 0 35 24 24 24 34 -1 59 -16 16 -33 20 -80 20 l-60 0 0 -100z m100 55
c16 -19 4 -35 -26 -35 -19 0 -24 5 -24 25 0 29 29 35 50 10z m-6 -71 c35 -13
12 -54 -30 -54 -9 0 -14 11 -14 30 0 30 11 37 44 24z"/>
<path d="M2360 421 c0 -11 -6 -21 -12 -24 -10 -3 -10 -9 0 -26 6 -11 12 -40
12 -64 0 -50 13 -67 52 -67 21 0 28 5 28 19 0 11 -8 21 -17 23 -12 2 -18 14
-19 41 -2 31 0 37 17 37 12 0 19 7 19 20 0 13 -7 20 -19 20 -14 0 -18 5 -14
20 4 16 0 20 -21 20 -19 0 -26 -5 -26 -19z"/>
<path d="M610 380 c-24 -24 -27 -86 -4 -118 11 -15 25 -22 50 -22 19 0 34 5
34 10 0 6 5 10 11 10 5 0 7 -4 4 -10 -4 -6 5 -10 19 -10 26 0 26 1 26 80 0 70
-2 80 -18 80 -10 0 -23 -5 -29 -11 -8 -8 -13 -8 -17 0 -11 18 -54 13 -76 -9z
m90 -40 c22 -40 -26 -80 -58 -48 -25 25 -6 68 30 68 9 0 22 -9 28 -20z"/>
<path d="M790 280 l0 -120 26 0 c26 0 26 1 22 50 -5 47 3 63 17 40 3 -5 19
-10 34 -10 51 0 80 59 56 116 -16 38 -56 54 -87 35 -11 -7 -18 -7 -18 -1 0 5
-11 10 -25 10 l-25 0 0 -120z m114 58 c15 -25 -4 -53 -35 -53 -25 0 -37 30
-25 61 8 20 46 14 60 -8z"/>
<path d="M980 320 c0 -79 0 -80 25 -80 25 0 25 1 25 80 0 79 0 80 -25 80 -25
0 -25 -1 -25 -80z"/>
<path d="M1528 320 l-3 -80 29 0 c28 0 28 1 22 39 -7 49 0 71 25 71 14 0 19 7
19 25 0 28 -9 31 -29 13 -11 -10 -14 -10 -18 0 -3 6 -13 12 -23 12 -16 0 -19
-10 -22 -80z"/>
<path d="M1651 374 c-12 -15 -21 -39 -21 -54 0 -59 72 -104 108 -68 9 9 12 9
12 0 0 -7 11 -12 25 -12 25 0 25 1 25 80 0 79 0 80 -25 80 -14 0 -25 -5 -25
-12 0 -9 -3 -9 -12 0 -21 21 -65 14 -87 -14z m93 -36 c15 -25 -4 -53 -35 -53
-25 0 -37 30 -25 61 8 20 46 14 60 -8z"/>
<path d="M1850 380 c-13 -13 -20 -33 -20 -60 0 -27 7 -47 20 -60 27 -27 83
-27 110 0 28 28 17 41 -23 29 -17 -5 -37 -9 -44 -9 -15 0 -26 35 -18 60 6 20
39 28 49 12 9 -14 51 -6 48 9 -9 41 -88 53 -122 19z"/>
<path d="M2191 374 c-45 -57 -11 -134 58 -134 24 0 44 7 54 18 26 28 21 33
-29 30 -31 -2 -48 1 -51 10 -3 9 11 12 51 12 50 0 56 2 56 20 0 12 -11 32 -25
45 -34 35 -86 34 -114 -1z m87 -31 c2 -9 -7 -13 -27 -13 -30 0 -39 9 -24 24
11 10 46 3 51 -11z"/>
<path d="M2476 387 c-11 -8 -17 -23 -14 -38 2 -18 13 -27 46 -37 23 -8 42 -18
42 -22 0 -16 -21 -23 -33 -11 -16 16 -57 14 -57 -4 0 -32 79 -47 114 -22 11 8
17 23 14 38 -2 18 -13 27 -45 37 -24 8 -43 18 -43 22 0 16 21 22 35 10 8 -6
26 -10 42 -8 l28 3 -22 23 c-26 25 -79 30 -107 9z"/>
<path d="M580 128 c0 -30 13 -58 26 -58 8 0 14 5 14 12 0 6 6 3 14 -8 14 -18
15 -18 25 9 6 16 11 33 11 38 0 16 -18 10 -23 -8 -4 -17 -5 -17 -6 0 0 9 -8
17 -16 17 -8 0 -15 -8 -16 -17 0 -14 -2 -13 -9 5 -10 24 -20 29 -20 10z"/>
<path d="M703 133 c-7 -3 -13 -18 -13 -35 0 -21 4 -29 14 -25 7 3 18 1 23 -4
5 -5 9 4 10 25 1 34 -10 47 -34 39z"/>
<path d="M839 124 c-10 -12 -8 -17 7 -29 16 -13 17 -14 2 -9 -21 7 -25 -11 -5
-19 21 -8 35 6 35 35 -1 31 -21 43 -39 22z"/>
<path d="M900 131 c0 -6 5 -13 11 -17 6 -3 9 -15 6 -25 -6 -21 11 -38 17 -17
18 57 17 68 -9 68 -14 0 -25 -4 -25 -9z"/>
<path d="M980 140 c-10 -21 -6 -72 7 -77 19 -7 28 4 15 19 -5 7 -12 24 -15 38
-2 14 -5 23 -7 20z"/>
<path d="M1037 133 c-11 -10 -8 -61 3 -68 6 -4 10 10 10 34 0 42 -2 46 -13 34z"/>
<path d="M1120 118 c-1 -21 -2 -22 -14 -5 -19 25 -31 21 -32 -13 -1 -17 3 -30
7 -30 5 0 9 8 9 18 0 14 4 12 20 -8 11 -14 20 -23 20 -20 7 36 6 71 -1 76 -5
3 -9 -5 -9 -18z"/>
<path d="M1172 128 c-28 -28 3 -83 33 -58 20 16 19 56 -1 64 -20 8 -18 8 -32
-6z"/>
<path d="M1287 133 c-4 -3 -7 -19 -7 -35 0 -31 24 -48 43 -29 8 8 8 11 0 11
-7 0 -11 9 -10 20 1 11 5 20 10 20 4 0 5 5 2 10 -7 11 -28 13 -38 3z"/>
<path d="M1350 126 c0 -8 5 -27 10 -42 9 -24 13 -25 25 -13 18 18 32 75 16 65
-6 -4 -11 -14 -11 -22 0 -8 -4 -14 -10 -14 -5 0 -10 6 -10 14 0 8 -4 18 -10
21 -5 3 -10 -1 -10 -9z"/>
<path d="M1437 133 c-14 -13 -7 -61 9 -67 19 -7 33 2 19 12 -13 9 -16 42 -4
42 5 0 9 5 9 10 0 11 -23 14 -33 3z"/>
<path d="M1501 100 c1 -35 3 -40 8 -20 l7 25 13 -23 c6 -12 16 -20 22 -17 12
8 12 65 -1 65 -5 0 -10 -8 -10 -17 0 -15 -4 -13 -20 7 l-20 25 1 -45z"/>
<path d="M1586 112 c10 -46 14 -53 23 -47 6 3 8 12 4 20 -3 9 0 22 7 30 7 8
11 15 9 16 -50 10 -50 10 -43 -19z"/>
<path d="M1663 133 c-18 -6 -16 -23 5 -39 16 -13 16 -14 0 -8 -10 3 -18 2 -18
-4 0 -12 21 -21 38 -15 6 3 12 11 12 18 0 7 -6 16 -12 18 -10 4 -10 6 0 6 6 1
12 5 12 10 0 11 -21 19 -37 14z"/>
<path d="M1812 128 c-17 -17 -15 -55 4 -62 20 -8 44 10 44 33 0 17 -18 41 -30
41 -3 0 -11 -5 -18 -12z"/>
<path d="M1955 130 c-3 -5 -1 -10 4 -10 6 0 11 -13 11 -30 0 -16 5 -30 10 -30
6 0 10 14 10 30 0 17 5 30 11 30 5 0 7 5 4 10 -3 6 -15 10 -25 10 -10 0 -22
-4 -25 -10z"/>
<path d="M2030 100 c0 -25 4 -39 10 -35 6 3 10 19 10 35 0 16 -4 32 -10 35 -6
4 -10 -10 -10 -35z"/>
<path d="M2076 133 c-10 -10 -7 -63 4 -63 6 0 10 6 10 13 0 8 3 8 8 2 4 -6 17
-12 30 -12 18 -2 22 3 22 28 0 19 -5 29 -15 29 -8 0 -15 -7 -15 -15 0 -8 -4
-15 -10 -15 -5 0 -10 6 -10 14 0 17 -14 28 -24 19z"/>
<path d="M2170 106 c0 -20 5 -36 10 -36 6 0 10 13 10 29 0 17 -4 33 -10 36 -6
4 -10 -8 -10 -29z"/>
<path d="M2216 131 c-4 -5 -1 -11 5 -13 9 -3 9 -9 1 -25 -10 -18 -8 -22 8 -26
22 -6 38 9 18 16 -10 3 -10 7 0 20 8 9 11 21 7 27 -8 12 -32 13 -39 1z"/>
<path d="M2287 133 c-13 -13 -7 -64 8 -70 21 -7 33 6 16 16 -10 7 -10 10 -1
16 9 6 9 10 -1 16 -10 6 -11 9 -1 9 6 0 12 5 12 10 0 11 -23 14 -33 3z"/>
<path d="M2357 133 c-11 -10 -8 -61 3 -68 16 -10 50 14 50 35 0 24 -38 48 -53
33z"/>
<path d="M770 101 c0 -33 16 -49 33 -32 8 8 8 11 0 11 -13 0 -12 32 2 42 6 4
0 8 -12 8 -19 0 -23 -6 -23 -29z"/>
<path d="M1888 100 c-6 -40 2 -44 31 -14 24 25 21 44 -8 44 -13 0 -20 -9 -23
-30z"/>
</g>
</svg>
